<?xml version="1.0" encoding="UTF-8" standalone="no"?>
<!DOCTYPE svg PUBLIC "-//W3C//DTD SVG 1.1//EN" "http://www.w3.org/Graphics/SVG/1.1/DTD/svg11.dtd">
<svg width="100%" height="100%" viewBox="0 0 138 135" version="1.1" xmlns="http://www.w3.org/2000/svg" xmlns:xlink="http://www.w3.org/1999/xlink" xml:space="preserve" xmlns:serif="http://www.serif.com/" style="fill-rule:evenodd;clip-rule:evenodd;stroke-linejoin:round;stroke-miterlimit:2;">
    <g transform="matrix(4.16667,0,0,4.16667,62.941,65.7887)">
        <path d="M0,0.55C-0.585,0.122 -1.303,-0.133 -2.082,-0.133C-4.033,-0.133 -5.62,1.454 -5.62,3.405C-5.62,5.356 -4.033,6.944 -2.082,6.944C-0.13,6.944 1.457,5.356 1.457,3.405C1.457,2.626 1.202,1.908 0.773,1.323L3.378,-1.282C4.461,-0.021 5.118,1.616 5.118,3.405C5.118,7.375 1.888,10.605 -2.081,10.605C-6.052,10.605 -9.282,7.375 -9.282,3.405C-9.282,-0.565 -6.052,-3.795 -2.081,-3.795C-0.293,-3.795 1.344,-3.138 2.605,-2.054L0,0.55ZM-2.469,3.791C-2.362,3.898 -2.222,3.951 -2.082,3.951C-1.942,3.951 -1.802,3.898 -1.695,3.791L-0.012,2.108C0.225,2.484 0.364,2.928 0.364,3.405C0.364,4.753 -0.733,5.85 -2.082,5.85C-3.43,5.85 -4.527,4.753 -4.527,3.405C-4.527,2.057 -3.43,0.96 -2.082,0.96C-1.605,0.96 -1.161,1.099 -0.785,1.336L-2.469,3.018C-2.682,3.232 -2.682,3.577 -2.469,3.791M-2.082,-8.53C1.013,-8.53 3.835,-7.346 5.958,-5.408L3.379,-2.829C1.919,-4.109 0.008,-4.888 -2.081,-4.888C-6.655,-4.888 -10.376,-1.168 -10.376,3.405C-10.376,7.978 -6.655,11.698 -2.081,11.698C2.492,11.698 6.212,7.978 6.212,3.405C6.212,1.315 5.433,-0.596 4.152,-2.056L6.731,-4.635C8.669,-2.512 9.853,0.31 9.853,3.405C9.853,9.986 4.499,15.34 -2.082,15.34C-8.663,15.34 -14.017,9.986 -14.017,3.405C-14.017,-3.176 -8.663,-8.53 -2.082,-8.53M-2.082,16.433C5.102,16.433 10.946,10.588 10.946,3.405C10.946,0.009 9.639,-3.086 7.504,-5.408L9.956,-7.86C10.043,-7.737 10.178,-7.65 10.34,-7.631L15.472,-7.068C15.492,-7.065 15.513,-7.064 15.532,-7.064C15.808,-7.064 16.044,-7.271 16.075,-7.551C16.108,-7.851 15.892,-8.122 15.592,-8.154L10.779,-8.683L12.19,-10.094C12.213,-10.088 12.235,-10.082 12.26,-10.079L17.392,-9.515C17.412,-9.513 17.432,-9.512 17.452,-9.512C17.727,-9.512 17.964,-9.719 17.995,-9.998C18.028,-10.299 17.811,-10.568 17.511,-10.602L13.174,-11.078L15.808,-13.712C16.022,-13.926 16.022,-14.272 15.808,-14.486C15.595,-14.699 15.249,-14.699 15.035,-14.486L12.334,-11.783L10.909,-15.463C10.8,-15.744 10.484,-15.883 10.202,-15.775C9.92,-15.666 9.781,-15.35 9.89,-15.068L11.471,-10.985C11.477,-10.97 11.487,-10.959 11.495,-10.944L10.332,-9.781L8.903,-13.586C8.797,-13.868 8.482,-14.012 8.199,-13.905C7.917,-13.799 7.773,-13.484 7.879,-13.201L9.46,-8.992C9.467,-8.972 9.48,-8.957 9.489,-8.94L6.731,-6.18C4.409,-8.317 1.314,-9.624 -2.082,-9.624C-9.265,-9.624 -15.11,-3.779 -15.11,3.405C-15.11,10.588 -9.265,16.433 -2.082,16.433" style="fill-rule:nonzero;"/>
    </g>
</svg>
