<?xml version="1.0" encoding="UTF-8" standalone="no"?>
<!DOCTYPE svg PUBLIC "-//W3C//DTD SVG 1.1//EN" "http://www.w3.org/Graphics/SVG/1.1/DTD/svg11.dtd">
<svg width="100%" height="100%" viewBox="0 0 105 109" version="1.1" xmlns="http://www.w3.org/2000/svg" xmlns:xlink="http://www.w3.org/1999/xlink" xml:space="preserve" xmlns:serif="http://www.serif.com/" style="fill-rule:evenodd;clip-rule:evenodd;stroke-linejoin:round;stroke-miterlimit:2;">
    <g transform="matrix(4.16667,0,0,4.16667,-2557.51,-10767)">
        <g transform="matrix(1,0,0,1,625.039,2585.59)">
            <path d="M0,8.588L-6.417,1.963C-4.633,0.374 -2.383,-0.538 0,-0.638L0,8.588ZM0.606,10.084C0.773,10.017 0.882,9.856 0.882,9.676L0.882,-1.088C0.882,-1.332 0.684,-1.529 0.441,-1.529C-2.482,-1.529 -5.251,-0.407 -7.354,1.63C-7.438,1.711 -7.486,1.822 -7.487,1.939C-7.489,2.056 -7.445,2.169 -7.363,2.253L0.125,9.982C0.209,10.07 0.324,10.117 0.441,10.117C0.496,10.117 0.553,10.106 0.606,10.084" style="fill-rule:nonzero;"/>
        </g>
        <g transform="matrix(1,0,0,1,616.337,2590.42)">
            <path d="M0,12.714C-1.085,11.042 -1.655,9.115 -1.655,7.111C-1.655,4.441 -0.653,1.937 1.177,0.01L7.994,7.048L0,12.714ZM9.107,7.151C9.119,7.023 9.075,6.896 8.985,6.804L1.497,-0.926C1.416,-1.01 1.305,-1.058 1.188,-1.06C1.071,-1.058 0.958,-1.017 0.874,-0.936C-1.326,1.196 -2.537,4.053 -2.537,7.111C-2.537,9.446 -1.822,11.687 -0.472,13.589C-0.385,13.709 -0.249,13.774 -0.112,13.774C-0.024,13.774 0.065,13.748 0.143,13.693L8.924,7.47C9.028,7.396 9.096,7.28 9.107,7.151" style="fill-rule:nonzero;"/>
        </g>
        <g transform="matrix(1,0,0,1,637.908,2598.12)">
            <path d="M0,1.131C-0.027,1.632 -0.09,2.135 -0.188,2.626C-0.237,2.869 -0.297,3.12 -0.372,3.391C-0.586,4.159 -0.884,4.896 -1.257,5.581C-1.631,6.27 -2.09,6.923 -2.621,7.525C-2.91,7.854 -3.227,8.171 -3.563,8.468C-4.163,8.997 -4.816,9.455 -5.506,9.83C-6.194,10.205 -6.931,10.502 -7.697,10.715C-7.965,10.79 -8.214,10.85 -8.462,10.899C-8.955,10.997 -9.458,11.061 -9.956,11.087C-10.143,11.097 -10.331,11.104 -10.521,11.103C-10.528,11.103 -10.544,11.101 -10.551,11.101C-10.995,11.1 -11.452,11.069 -11.909,11.008C-12.077,10.986 -12.245,10.961 -12.411,10.931C-12.752,10.868 -13.097,10.786 -13.466,10.677C-13.613,10.634 -13.76,10.586 -13.905,10.538C-14.251,10.419 -14.558,10.299 -14.844,10.17C-14.977,10.11 -15.108,10.046 -15.235,9.982C-15.517,9.84 -15.799,9.681 -16.073,9.512L-16.138,9.471C-16.236,9.411 -16.334,9.351 -16.429,9.286C-16.693,9.107 -16.963,8.902 -17.254,8.661C-17.36,8.573 -17.464,8.483 -17.566,8.391C-17.801,8.18 -18.023,7.963 -18.227,7.744C-18.32,7.644 -18.411,7.541 -18.499,7.438C-18.678,7.231 -18.837,7.034 -18.983,6.84L-10.481,0.815C-10.365,0.732 -10.295,0.598 -10.295,0.455L-10.295,-9.968C-10.23,-9.967 -10.164,-9.964 -10.099,-9.961C-9.692,-9.945 -9.29,-9.908 -8.907,-9.849C-8.741,-9.823 -8.576,-9.793 -8.414,-9.761C-8.063,-9.688 -7.713,-9.598 -7.374,-9.492C-7.23,-9.447 -7.085,-9.397 -6.942,-9.345C-6.596,-9.219 -6.253,-9.075 -5.923,-8.914C-5.794,-8.85 -5.665,-8.785 -5.538,-8.716C-5.269,-8.572 -4.995,-8.407 -4.722,-8.225C-4.606,-8.149 -4.493,-8.07 -4.38,-7.988C-4.13,-7.808 -3.884,-7.615 -3.649,-7.412C-3.546,-7.323 -3.443,-7.231 -3.343,-7.137C-3.115,-6.926 -2.897,-6.705 -2.694,-6.48C-2.602,-6.378 -2.513,-6.274 -2.424,-6.169C-2.204,-5.905 -1.994,-5.625 -1.8,-5.34C-1.721,-5.225 -1.646,-5.107 -1.573,-4.989C-1.403,-4.716 -1.246,-4.434 -1.104,-4.151C-1.039,-4.022 -0.977,-3.892 -0.916,-3.757C-0.778,-3.452 -0.654,-3.138 -0.546,-2.822C-0.497,-2.676 -0.45,-2.53 -0.407,-2.38C-0.308,-2.043 -0.224,-1.689 -0.158,-1.324C-0.127,-1.158 -0.101,-0.991 -0.079,-0.823C-0.018,-0.36 0.013,0.097 0.015,0.535L0.015,0.566C0.015,0.756 0.009,0.944 0,1.131M0.795,-0.938C0.771,-1.12 0.742,-1.302 0.71,-1.482C0.637,-1.877 0.546,-2.263 0.44,-2.627C0.393,-2.788 0.342,-2.948 0.288,-3.105C0.172,-3.448 0.036,-3.79 -0.112,-4.119C-0.177,-4.264 -0.245,-4.406 -0.316,-4.547C-0.47,-4.854 -0.641,-5.158 -0.824,-5.454C-0.906,-5.585 -0.987,-5.712 -1.071,-5.837C-1.281,-6.146 -1.509,-6.447 -1.748,-6.733C-1.842,-6.847 -1.94,-6.959 -2.04,-7.07C-2.259,-7.313 -2.496,-7.553 -2.743,-7.783C-2.851,-7.884 -2.962,-7.983 -3.074,-8.079C-3.328,-8.298 -3.594,-8.509 -3.864,-8.703C-3.987,-8.791 -4.111,-8.878 -4.236,-8.96C-4.53,-9.156 -4.828,-9.335 -5.121,-9.492C-5.258,-9.566 -5.397,-9.637 -5.536,-9.705C-5.895,-9.881 -6.267,-10.038 -6.642,-10.173C-6.797,-10.23 -6.954,-10.284 -7.112,-10.333C-7.478,-10.447 -7.856,-10.546 -8.238,-10.624C-8.414,-10.66 -8.592,-10.692 -8.771,-10.719C-9.189,-10.784 -9.624,-10.825 -10.064,-10.842C-10.216,-10.848 -10.369,-10.853 -10.523,-10.853C-10.883,-10.853 -11.177,-10.56 -11.177,-10.199L-11.177,0.227L-19.68,6.254C-19.821,6.353 -19.919,6.507 -19.948,6.682C-19.976,6.853 -19.937,7.024 -19.836,7.168L-19.794,7.225C-19.609,7.481 -19.404,7.739 -19.166,8.015C-19.069,8.127 -18.971,8.238 -18.871,8.346C-18.651,8.582 -18.41,8.818 -18.155,9.046C-18.045,9.146 -17.933,9.243 -17.818,9.338C-17.504,9.6 -17.211,9.822 -16.922,10.016C-16.817,10.088 -16.709,10.154 -16.602,10.221L-16.538,10.26C-16.242,10.444 -15.938,10.615 -15.63,10.77C-15.49,10.84 -15.349,10.91 -15.206,10.973C-14.895,11.114 -14.562,11.245 -14.188,11.372C-14.03,11.425 -13.872,11.477 -13.712,11.523C-13.315,11.64 -12.942,11.729 -12.569,11.798C-12.389,11.831 -12.207,11.857 -12.025,11.881C-11.531,11.948 -11.035,11.982 -10.565,11.983C-10.557,11.983 -10.529,11.984 -10.523,11.984C-10.316,11.984 -10.111,11.978 -9.909,11.967C-9.369,11.939 -8.824,11.87 -8.289,11.763C-8.02,11.71 -7.749,11.645 -7.461,11.564C-6.631,11.333 -5.832,11.01 -5.085,10.604C-4.337,10.198 -3.628,9.701 -2.98,9.128C-2.616,8.808 -2.273,8.464 -1.959,8.107C-1.385,7.457 -0.888,6.749 -0.483,6.002C-0.078,5.258 0.245,4.46 0.477,3.627C0.558,3.334 0.623,3.063 0.676,2.798C0.782,2.265 0.85,1.721 0.881,1.177C0.891,0.975 0.897,0.771 0.897,0.566L0.896,0.533C0.895,0.057 0.86,-0.437 0.795,-0.938" style="fill-rule:nonzero;"/>
        </g>
    </g>
</svg>
