<?xml version="1.0" encoding="UTF-8" standalone="no"?>
<!DOCTYPE svg PUBLIC "-//W3C//DTD SVG 1.1//EN" "http://www.w3.org/Graphics/SVG/1.1/DTD/svg11.dtd">
<svg width="100%" height="100%" viewBox="0 0 132 125" version="1.1" xmlns="http://www.w3.org/2000/svg" xmlns:xlink="http://www.w3.org/1999/xlink" xml:space="preserve" xmlns:serif="http://www.serif.com/" style="fill-rule:evenodd;clip-rule:evenodd;stroke-linejoin:round;stroke-miterlimit:2;">
    <g transform="matrix(4.16667,0,0,4.16667,-377.847,-10754.3)">
        <g transform="matrix(1,0,0,1,110.132,2582.02)">
            <path d="M0,27.914L-18.483,27.914L-18.483,11.599L-13.073,11.599L-13.073,6.188L-9.349,6.188C-9.399,6.555 -9.434,6.925 -9.434,7.305C-9.434,11.867 -5.722,15.578 -1.16,15.578C-0.765,15.578 -0.38,15.541 0,15.487L0,27.914ZM-17.797,10.629L-14.042,6.874L-14.042,10.629L-17.797,10.629ZM-8.464,7.305C-8.464,3.277 -5.187,0.001 -1.16,0.001C2.868,0.001 6.144,3.277 6.144,7.305C6.144,11.332 2.868,14.608 -1.16,14.608C-5.187,14.608 -8.464,11.332 -8.464,7.305M10.262,20.128C10.047,20.123 9.848,20.035 9.7,19.879L3.927,13.815C4.351,13.484 4.741,13.113 5.093,12.706L10.864,18.768C11.007,18.92 11.086,19.117 11.086,19.324C11.086,19.546 10.998,19.753 10.836,19.906C10.681,20.055 10.479,20.139 10.262,20.128M11.567,18.1L5.695,11.933C6.59,10.611 7.114,9.018 7.114,7.305C7.114,2.743 3.402,-0.969 -1.16,-0.969C-5,-0.969 -8.229,1.665 -9.157,5.219L-13.758,5.219L-13.994,5.454L-14.042,5.454L-14.042,5.503L-19.168,10.629L-19.218,10.629L-19.218,10.679L-19.453,10.913L-19.453,28.883L0.969,28.883L0.969,15.29C1.735,15.085 2.457,14.775 3.118,14.372L8.998,20.547C9.324,20.891 9.765,21.087 10.239,21.098C10.253,21.099 10.269,21.099 10.284,21.099C10.741,21.099 11.174,20.926 11.506,20.608C11.855,20.276 12.056,19.808 12.056,19.324C12.056,18.868 11.882,18.433 11.567,18.1" style="fill-rule:nonzero;"/>
        </g>
        <g transform="matrix(1,0,0,1,108.972,2584.07)">
            <path d="M0,10.521C-2.901,10.521 -5.261,8.161 -5.261,5.26C-5.261,2.359 -2.901,0 0,0C2.9,0 5.261,2.359 5.261,5.26C5.261,8.161 2.9,10.521 0,10.521M0,-0.97C-3.436,-0.97 -6.231,1.825 -6.231,5.26C-6.231,8.696 -3.436,11.491 0,11.491C3.436,11.491 6.23,8.696 6.23,5.26C6.23,1.825 3.436,-0.97 0,-0.97" style="fill-rule:nonzero;"/>
        </g>
        <g transform="matrix(-1,0,0,1,193.818,1940.75)">
            <rect x="93.346" y="659.017" width="7.126" height="0.97"/>
        </g>
        <g transform="matrix(1,0,0,1,0,1946.46)">
            <rect x="93.346" y="656.16" width="14.907" height="0.97"/>
        </g>
        <g transform="matrix(1,0,0,1,0,1952.18)">
            <rect x="93.346" y="653.302" width="14.907" height="0.97"/>
        </g>
        <g transform="matrix(-1,0,0,1,193.818,1935.03)">
            <rect x="93.346" y="661.873" width="7.126" height="0.97"/>
        </g>
    </g>
</svg>
