<?xml version="1.0" encoding="UTF-8" standalone="no"?>
<!DOCTYPE svg PUBLIC "-//W3C//DTD SVG 1.1//EN" "http://www.w3.org/Graphics/SVG/1.1/DTD/svg11.dtd">
<svg width="100%" height="100%" viewBox="0 0 170 117" version="1.1" xmlns="http://www.w3.org/2000/svg" xmlns:xlink="http://www.w3.org/1999/xlink" xml:space="preserve" xmlns:serif="http://www.serif.com/" style="fill-rule:evenodd;clip-rule:evenodd;stroke-linejoin:round;stroke-miterlimit:2;">
    <g transform="matrix(4.16667,0,0,4.16667,-1830.97,-10767)">
        <g transform="matrix(1,0,0,1,465.91,2604.54)">
            <path d="M0,-2.245L-2.09,-3.544L-1.561,-4.754L0.821,-4.213L0.993,-4.443C1.322,-4.886 1.715,-5.277 2.159,-5.605L2.394,-5.778L1.835,-8.175L3.064,-8.656L4.366,-6.59L4.65,-6.632C5.187,-6.709 5.76,-6.709 6.297,-6.628L6.585,-6.584L7.884,-8.675L9.094,-8.145L8.553,-5.763L8.784,-5.59C9.227,-5.261 9.617,-4.87 9.945,-4.424L10.118,-4.19L12.515,-4.75L12.996,-3.519L10.93,-2.219L10.971,-1.933C11.01,-1.669 11.03,-1.397 11.03,-1.122C11.03,-0.838 11.009,-0.559 10.968,-0.287L10.924,0.001L13.014,1.3L12.485,2.511L10.103,1.969L9.931,2.2C9.601,2.642 9.208,3.033 8.765,3.361L8.53,3.534L9.09,5.931L7.859,6.413L6.558,4.346L6.274,4.387C5.736,4.465 5.164,4.464 4.627,4.384L4.339,4.34L3.04,6.43L1.83,5.901L2.371,3.519L2.14,3.347C1.698,3.018 1.307,2.625 0.979,2.181L0.806,1.946L-1.59,2.505L-2.073,1.275L-0.006,-0.026L-0.047,-0.31C-0.086,-0.575 -0.106,-0.846 -0.106,-1.122C-0.106,-1.405 -0.085,-1.684 -0.044,-1.957L0,-2.245ZM-3.207,-3.197L-0.955,-1.797C-0.979,-1.575 -0.99,-1.35 -0.99,-1.122C-0.99,-0.902 -0.979,-0.685 -0.958,-0.472L-3.162,0.916L-2.135,3.541L0.447,2.938C0.727,3.283 1.04,3.597 1.383,3.878L0.805,6.418L3.387,7.547L4.787,5.296C5.223,5.341 5.677,5.342 6.113,5.298L7.5,7.503L10.125,6.476L9.523,3.893C9.866,3.614 10.181,3.301 10.461,2.957L13.002,3.536L14.132,0.953L11.88,-0.447C11.903,-0.668 11.915,-0.894 11.915,-1.122C11.915,-1.342 11.903,-1.559 11.882,-1.773L14.087,-3.161L13.059,-5.785L10.477,-5.182C10.198,-5.527 9.884,-5.841 9.541,-6.121L10.119,-8.662L7.537,-9.792L6.137,-7.539C5.702,-7.585 5.248,-7.586 4.811,-7.542L3.424,-9.747L0.799,-8.719L1.402,-6.137C1.057,-5.858 0.743,-5.544 0.463,-5.201L-2.078,-5.779L-3.207,-3.197Z" style="fill-rule:nonzero;"/>
        </g>
        <g transform="matrix(1,0,0,1,468.531,2603.42)">
            <path d="M0,0C0,-1.566 1.275,-2.84 2.841,-2.84C4.407,-2.84 5.681,-1.566 5.681,0C5.681,1.567 4.407,2.841 2.841,2.841C1.275,2.841 0,1.567 0,0M-0.884,0C-0.884,2.055 0.787,3.725 2.841,3.725C4.895,3.725 6.566,2.055 6.566,0C6.566,-2.054 4.895,-3.725 2.841,-3.725C0.787,-3.725 -0.884,-2.054 -0.884,0" style="fill-rule:nonzero;"/>
        </g>
        <g transform="matrix(1,0,0,1,443.825,2593.74)">
            <path d="M0,4.271L-3.358,3.976L-3.474,1.92L-0.234,1.11L-0.184,0.826C-0.12,0.458 -0.028,0.09 0.089,-0.267C0.21,-0.634 0.358,-0.995 0.531,-1.339L0.661,-1.598L-1.505,-4.181L-0.132,-5.717L2.733,-3.998L2.968,-4.164C3.593,-4.604 4.278,-4.949 5.004,-5.189L5.28,-5.28L5.575,-8.638L7.631,-8.754L8.441,-5.514L8.725,-5.464C9.091,-5.401 9.458,-5.309 9.818,-5.191C10.187,-5.07 10.548,-4.922 10.889,-4.75L11.149,-4.619L13.732,-6.785L15.268,-5.413L13.549,-2.547L13.715,-2.312C14.155,-1.688 14.5,-1.003 14.74,-0.277L14.832,0L18.19,0.294L18.306,2.351L15.065,3.16L15.016,3.444C14.951,3.813 14.859,4.181 14.743,4.537C14.622,4.906 14.474,5.267 14.301,5.609L14.17,5.869L16.336,8.452L14.964,9.988L12.099,8.269L11.863,8.435C11.239,8.875 10.553,9.22 9.828,9.46L9.551,9.551L9.257,12.909L7.201,13.026L6.39,9.784L6.107,9.735C5.738,9.672 5.371,9.579 5.014,9.462C4.647,9.342 4.286,9.194 3.942,9.02L3.682,8.89L1.099,11.056L-0.436,9.684L1.283,6.819L1.116,6.583C0.676,5.958 0.331,5.273 0.092,4.548L0,4.271ZM-0.652,5.102C-0.425,5.717 -0.13,6.304 0.23,6.853L-1.572,9.856L1.081,12.225L3.808,9.938C4.111,10.077 4.423,10.2 4.738,10.303C5.043,10.403 5.356,10.487 5.671,10.552L6.52,13.95L10.071,13.749L10.382,10.202C10.998,9.976 11.584,9.681 12.133,9.32L15.136,11.123L17.505,8.47L15.218,5.742C15.357,5.441 15.479,5.13 15.583,4.813C15.683,4.508 15.767,4.195 15.832,3.88L19.23,3.031L19.029,-0.52L15.483,-0.831C15.256,-1.447 14.961,-2.034 14.601,-2.582L16.403,-5.585L13.75,-7.954L11.023,-5.667C10.723,-5.805 10.411,-5.928 10.093,-6.032C9.786,-6.133 9.474,-6.216 9.161,-6.282L8.311,-9.679L4.761,-9.479L4.449,-5.932C3.834,-5.706 3.247,-5.41 2.698,-5.05L-0.305,-6.852L-2.674,-4.2L-0.387,-1.472C-0.525,-1.17 -0.648,-0.859 -0.752,-0.542C-0.852,-0.237 -0.935,0.076 -1.001,0.391L-4.399,1.239L-4.198,4.79L-0.652,5.102Z" style="fill-rule:nonzero;"/>
        </g>
        <g transform="matrix(1,0,0,1,447.43,2596.53)">
            <path d="M0,-1.903C0.553,-3.591 2.127,-4.665 3.814,-4.665C4.228,-4.665 4.647,-4.6 5.061,-4.465C7.162,-3.776 8.311,-1.506 7.623,0.596C6.934,2.698 4.664,3.846 2.561,3.158C0.46,2.469 -0.689,0.199 0,-1.903M-0.841,-2.178C-1.681,0.386 -0.279,3.157 2.286,3.999C2.788,4.163 3.303,4.244 3.816,4.244C4.574,4.244 5.326,4.067 6.022,3.715C7.189,3.124 8.056,2.114 8.463,0.871C9.304,-1.693 7.901,-4.464 5.336,-5.305C2.771,-6.147 0,-4.744 -0.841,-2.178" style="fill-rule:nonzero;"/>
        </g>
    </g>
</svg>
