<?xml version="1.0" encoding="UTF-8" standalone="no"?>
<!DOCTYPE svg PUBLIC "-//W3C//DTD SVG 1.1//EN" "http://www.w3.org/Graphics/SVG/1.1/DTD/svg11.dtd">
<svg width="100%" height="100%" viewBox="0 0 4134 4134" version="1.1" xmlns="http://www.w3.org/2000/svg" xmlns:xlink="http://www.w3.org/1999/xlink" xml:space="preserve" xmlns:serif="http://www.serif.com/" style="fill-rule:evenodd;clip-rule:evenodd;stroke-linejoin:round;stroke-miterlimit:2;">
    <g transform="matrix(90.4926,0,0,80.6361,-231.527,-3206.14)">
        <g transform="matrix(1,0,0,1,31.2863,72.546)">
            <path d="M0,5.273L-1.476,3.194L-2.951,5.273L0,5.273ZM3.296,12.104L2.392,10.622L-5.368,10.622L-6.222,12.104L-12.4,12.104L-1.476,-6.831L9.448,12.104L3.296,12.104Z" style="fill-rule:nonzero;"/>
        </g>
        <g transform="matrix(1,0,0,1,25.2989,53.0927)">
            <path d="M0,5.273L-1.476,3.194L-2.951,5.273L0,5.273ZM3.296,12.104L2.392,10.622L-5.368,10.622L-6.222,12.104L-12.4,12.104L-1.476,-6.831L9.448,12.104L3.296,12.104Z" style="fill-rule:nonzero;"/>
        </g>
        <g transform="matrix(1,0,0,1,17.0312,59.2887)">
            <path d="M0,-7.275L-4.153,-7.275L-4.153,5.908L-10.061,5.908L-10.061,-7.275L-14.214,-7.275L-14.214,-13.183L0,-13.183L0,-7.275Z" style="fill-rule:nonzero;"/>
        </g>
        <g transform="matrix(1,0,0,1,47.9816,53.8539)">
            <path d="M0,3.901C0,6.047 -0.752,7.859 -2.285,9.392C-3.818,10.897 -5.658,11.649 -7.804,11.649C-9.922,11.649 -11.901,10.813 -13.322,9.392C-14.743,7.97 -15.635,6.047 -15.635,3.901L-15.635,-7.748L-9.727,-7.748L-9.727,3.901C-9.727,4.375 -9.504,4.877 -9.169,5.211C-8.807,5.546 -8.333,5.769 -7.804,5.769C-6.772,5.769 -5.936,4.932 -5.936,3.901L-5.936,-7.748L0,-7.748L0,3.901Z" style="fill-rule:nonzero;"/>
        </g>
        <g transform="matrix(1,0,0,1,11.3342,74.5399)">
            <path d="M0,1.387C-1.224,1.387 -2.216,0.395 -2.216,-0.829C-2.216,-2.053 -1.224,-3.045 0,-3.045C1.224,-3.045 2.216,-2.053 2.216,-0.829C2.216,0.395 1.224,1.387 0,1.387M10.435,4.09C9.766,4.396 7.983,4.926 6.701,4.926C7.425,4.173 8.011,3.337 8.429,2.362C8.847,1.359 9.07,0.327 9.07,-0.788C9.07,-3.073 8.261,-4.996 6.673,-6.585C5.056,-8.173 3.133,-8.981 0.876,-8.981L-8.517,-9.037L-8.517,10.11L-2.608,10.11L-2.608,7.378L-2.552,7.378C-2.476,7.449 -2.399,7.518 -2.322,7.587C-1.33,8.276 2.17,10.424 6.818,10.11L10.435,4.09Z" style="fill-rule:nonzero;"/>
        </g>
    </g>
</svg>
