<?xml version="1.0" encoding="UTF-8" standalone="no"?>
<!DOCTYPE svg PUBLIC "-//W3C//DTD SVG 1.1//EN" "http://www.w3.org/Graphics/SVG/1.1/DTD/svg11.dtd">
<svg width="100%" height="100%" viewBox="0 0 698 209" version="1.1" xmlns="http://www.w3.org/2000/svg" xmlns:xlink="http://www.w3.org/1999/xlink" xml:space="preserve" xmlns:serif="http://www.serif.com/" style="fill-rule:evenodd;clip-rule:evenodd;stroke-linejoin:round;stroke-miterlimit:2;">
    <g id="criativa">
        <g id="a" transform="matrix(8.33333,0,0,8.33333,533.695,190.251)">
            <path d="M0,0.986L1.096,0.986L0.797,0.372C0.764,0.299 0.731,0.216 0.692,0.117C0.653,0.017 0.625,-0.066 0.603,-0.126L0.57,-0.221L0.537,-0.221C0.459,0.017 0.382,0.216 0.304,0.377L0,0.986ZM1.356,1.578L-0.26,1.578L-0.498,2.082C-0.52,2.132 -0.559,2.153 -0.614,2.153L-1.273,2.153C-1.301,2.153 -1.317,2.143 -1.317,2.115C-1.317,2.098 -1.312,2.076 -1.295,2.048L0.266,-1.167L0.841,-1.167L2.402,2.048C2.418,2.076 2.424,2.098 2.424,2.115C2.424,2.143 2.407,2.153 2.38,2.153L1.721,2.153C1.666,2.153 1.627,2.132 1.605,2.082L1.356,1.578Z" style="fill-rule:nonzero;"/>
        </g>
        <g id="v" transform="matrix(8.33333,0,0,8.33333,508.197,194.315)">
            <path d="M0,0.011C0.033,0.083 0.066,0.166 0.105,0.26C0.144,0.354 0.172,0.426 0.188,0.482L0.216,0.565L0.249,0.565C0.315,0.36 0.387,0.177 0.465,0.017L1.234,-1.583C1.251,-1.616 1.267,-1.638 1.284,-1.644C1.301,-1.649 1.323,-1.655 1.356,-1.655L2.02,-1.655C2.048,-1.655 2.064,-1.644 2.064,-1.621C2.064,-1.611 2.053,-1.583 2.031,-1.538L0.498,1.666L-0.022,1.666L-1.555,-1.538C-1.577,-1.583 -1.588,-1.611 -1.588,-1.621C-1.588,-1.644 -1.572,-1.655 -1.544,-1.655L-0.88,-1.655C-0.847,-1.655 -0.825,-1.649 -0.808,-1.644C-0.791,-1.638 -0.775,-1.616 -0.758,-1.583L0,0.011Z" style="fill-rule:nonzero;"/>
        </g>
        <g id="i" transform="matrix(8.33333,0,0,8.33333,491.273,181.027)">
            <path d="M0,3.194C0,3.211 -0.006,3.227 -0.017,3.244C-0.028,3.26 -0.044,3.26 -0.061,3.26L-0.681,3.26C-0.697,3.26 -0.714,3.26 -0.725,3.244C-0.736,3.227 -0.742,3.211 -0.742,3.194L-0.742,0.006C-0.742,-0.01 -0.736,-0.027 -0.725,-0.043C-0.714,-0.06 -0.697,-0.066 -0.681,-0.066L-0.061,-0.066C-0.044,-0.066 -0.028,-0.06 -0.017,-0.043C-0.006,-0.027 0,-0.01 0,0.006L0,3.194Z" style="fill-rule:nonzero;"/>
        </g>
        <g id="t" transform="matrix(8.33333,0,0,8.33333,454.521,202.935)">
            <path d="M0,-2.058C-0.017,-2.058 -0.033,-2.069 -0.05,-2.086C-0.066,-2.102 -0.077,-2.119 -0.077,-2.136L-0.077,-2.611C-0.077,-2.628 -0.066,-2.645 -0.05,-2.661C-0.033,-2.678 -0.017,-2.689 0,-2.689L3.144,-2.689C3.16,-2.689 3.177,-2.678 3.193,-2.661C3.21,-2.645 3.221,-2.628 3.221,-2.611L3.221,-2.136C3.221,-2.119 3.21,-2.102 3.193,-2.086C3.177,-2.069 3.16,-2.058 3.144,-2.058L1.948,-2.058L1.948,0.565C1.948,0.582 1.943,0.598 1.926,0.615C1.909,0.631 1.893,0.631 1.876,0.631L1.256,0.631C1.24,0.631 1.223,0.631 1.206,0.615C1.19,0.598 1.184,0.582 1.184,0.565L1.184,-2.058L0,-2.058Z" style="fill-rule:nonzero;"/>
        </g>
        <g id="a1" serif:id="a" transform="matrix(8.33333,0,0,8.33333,432.666,190.251)">
            <path d="M0,0.986L1.096,0.986L0.797,0.372C0.764,0.299 0.73,0.216 0.692,0.117C0.653,0.017 0.625,-0.066 0.603,-0.126L0.57,-0.221L0.537,-0.221C0.459,0.017 0.382,0.216 0.304,0.377L0,0.986ZM1.356,1.578L-0.26,1.578L-0.498,2.082C-0.52,2.132 -0.559,2.153 -0.614,2.153L-1.273,2.153C-1.301,2.153 -1.317,2.143 -1.317,2.115C-1.317,2.098 -1.312,2.076 -1.295,2.048L0.266,-1.167L0.841,-1.167L2.402,2.048C2.418,2.076 2.424,2.098 2.424,2.115C2.424,2.143 2.407,2.153 2.38,2.153L1.721,2.153C1.666,2.153 1.627,2.132 1.605,2.082L1.356,1.578Z" style="fill-rule:nonzero;"/>
        </g>
        <g id="i1" serif:id="i" transform="matrix(8.33333,0,0,8.33333,417.957,181.027)">
            <path d="M0,3.194C0,3.211 -0.006,3.227 -0.017,3.244C-0.028,3.26 -0.044,3.26 -0.061,3.26L-0.681,3.26C-0.697,3.26 -0.714,3.26 -0.725,3.244C-0.736,3.227 -0.742,3.211 -0.742,3.194L-0.742,0.006C-0.742,-0.01 -0.736,-0.027 -0.725,-0.043C-0.714,-0.06 -0.697,-0.066 -0.681,-0.066L-0.061,-0.066C-0.044,-0.066 -0.028,-0.06 -0.017,-0.043C-0.006,-0.027 0,-0.01 0,0.006L0,3.194Z" style="fill-rule:nonzero;"/>
        </g>
        <g id="r" transform="matrix(8.33333,0,0,8.33333,387.8,202.94)">
            <path d="M0,-2.064L0,-1.013L0.802,-1.013C1.013,-1.013 1.179,-1.057 1.301,-1.151C1.422,-1.245 1.483,-1.373 1.483,-1.533C1.483,-1.693 1.422,-1.821 1.301,-1.915C1.179,-2.009 1.013,-2.059 0.808,-2.059L0,-2.064ZM-0.747,-2.623C-0.747,-2.64 -0.742,-2.656 -0.73,-2.673C-0.719,-2.689 -0.703,-2.695 -0.686,-2.695L0.852,-2.695C1.262,-2.695 1.594,-2.59 1.849,-2.38C2.103,-2.169 2.23,-1.887 2.23,-1.527C2.23,-1.284 2.164,-1.079 2.031,-0.908C1.898,-0.736 1.716,-0.609 1.489,-0.525L1.489,-0.515C1.555,-0.443 1.616,-0.371 1.666,-0.293L2.225,0.526C2.247,0.554 2.258,0.576 2.258,0.592C2.258,0.62 2.241,0.631 2.214,0.631L1.478,0.631C1.445,0.631 1.417,0.614 1.389,0.576L0.714,-0.409L0,-0.409L0,0.564C0,0.581 -0.005,0.598 -0.017,0.614C-0.028,0.631 -0.044,0.631 -0.061,0.631L-0.681,0.631C-0.697,0.631 -0.714,0.631 -0.725,0.614C-0.736,0.598 -0.742,0.581 -0.742,0.564L-0.747,-2.623Z" style="fill-rule:nonzero;"/>
        </g>
        <g id="c" transform="matrix(8.33333,0,0,8.33333,371.157,196.992)">
            <path d="M0,-0.631C-0.05,-0.631 -0.083,-0.659 -0.094,-0.719C-0.122,-0.913 -0.216,-1.074 -0.382,-1.201C-0.548,-1.328 -0.753,-1.395 -0.996,-1.395C-1.29,-1.395 -1.533,-1.295 -1.732,-1.09C-1.932,-0.885 -2.031,-0.626 -2.031,-0.31C-2.031,0.005 -1.932,0.265 -1.738,0.471C-1.544,0.675 -1.295,0.775 -0.996,0.775C-0.747,0.775 -0.542,0.72 -0.382,0.609C-0.221,0.498 -0.127,0.348 -0.1,0.161C-0.089,0.099 -0.055,0.066 0.006,0.066L0.559,0.066C0.62,0.066 0.653,0.094 0.653,0.149C0.653,0.509 0.498,0.808 0.188,1.046C-0.122,1.284 -0.52,1.4 -1.007,1.4C-1.516,1.4 -1.943,1.245 -2.286,0.924C-2.629,0.603 -2.8,0.188 -2.8,-0.316C-2.8,-0.819 -2.629,-1.229 -2.286,-1.55C-1.943,-1.871 -1.516,-2.031 -1.007,-2.031C-0.504,-2.031 -0.105,-1.898 0.194,-1.632C0.493,-1.367 0.642,-1.057 0.642,-0.709C0.642,-0.659 0.614,-0.636 0.553,-0.636L0,-0.631Z" style="fill-rule:nonzero;"/>
        </g>
    </g>
    <g id="agencia">
        <g id="a2" serif:id="a" transform="matrix(8.33333,0,0,8.33333,313.103,189.093)">
            <path d="M0,1.269L1.777,1.269L1.123,-0.032L0.902,-0.563L0.88,-0.563C0.808,-0.358 0.742,-0.181 0.664,-0.032L0,1.269ZM1.92,1.545L-0.133,1.545L-0.487,2.243C-0.504,2.276 -0.531,2.292 -0.57,2.292L-0.78,2.292C-0.819,2.292 -0.836,2.282 -0.836,2.265C-0.836,2.259 -0.83,2.243 -0.814,2.215L0.825,-1.023L0.957,-1.023L2.596,2.215C2.612,2.243 2.618,2.259 2.618,2.265C2.618,2.282 2.601,2.292 2.562,2.292L2.347,2.292C2.313,2.292 2.286,2.276 2.269,2.243L1.92,1.545Z" style="fill-rule:nonzero;"/>
        </g>
        <g id="i2" serif:id="i" transform="matrix(8.33333,0,0,8.33333,300.882,180.897)">
            <path d="M0,3.232C0,3.259 -0.017,3.276 -0.044,3.276L-0.266,3.276C-0.293,3.276 -0.31,3.259 -0.31,3.232L-0.31,0C-0.31,-0.028 -0.293,-0.044 -0.266,-0.044L-0.044,-0.044C-0.017,-0.044 0,-0.028 0,0L0,3.232Z" style="fill-rule:nonzero;"/>
        </g>
        <g id="c1" serif:id="c" transform="matrix(8.33333,0,0,8.33333,288.944,197.68)">
            <path d="M0,-0.802C-0.033,-0.802 -0.05,-0.819 -0.055,-0.858C-0.077,-1.134 -0.199,-1.366 -0.421,-1.555C-0.642,-1.743 -0.935,-1.837 -1.295,-1.837C-1.699,-1.837 -2.037,-1.704 -2.302,-1.444C-2.568,-1.184 -2.701,-0.835 -2.701,-0.398C-2.701,0.039 -2.568,0.388 -2.302,0.648C-2.037,0.908 -1.699,1.041 -1.295,1.041C-0.913,1.041 -0.614,0.952 -0.404,0.77C-0.194,0.587 -0.072,0.371 -0.044,0.122C-0.039,0.083 -0.017,0.061 0.022,0.061L0.221,0.061C0.26,0.061 0.277,0.073 0.277,0.094C0.277,0.233 0.244,0.371 0.183,0.51C0.122,0.648 0.028,0.781 -0.094,0.903C-0.216,1.024 -0.382,1.124 -0.587,1.201C-0.791,1.273 -1.024,1.312 -1.284,1.312C-1.777,1.312 -2.186,1.162 -2.513,0.847C-2.839,0.531 -3,0.116 -3,-0.398C-3,-0.913 -2.834,-1.328 -2.507,-1.643C-2.18,-1.959 -1.771,-2.114 -1.278,-2.114C-0.797,-2.114 -0.415,-1.981 -0.133,-1.715C0.149,-1.449 0.288,-1.156 0.288,-0.841C0.288,-0.813 0.271,-0.802 0.232,-0.802L0,-0.802Z" style="fill-rule:nonzero;"/>
        </g>
        <g id="n" transform="matrix(8.33333,0,0,8.33333,255.331,180.53)">
            <path d="M0,3.32L-2.236,1.023C-2.435,0.819 -2.59,0.647 -2.701,0.509L-2.712,0.509L-2.712,3.281C-2.712,3.309 -2.728,3.32 -2.756,3.32L-2.977,3.32C-3.005,3.32 -3.022,3.309 -3.022,3.281L-3.022,0.049C-3.022,0.022 -3.005,0.005 -2.977,0.005L-2.811,0.005L-0.603,2.285C-0.542,2.346 -0.47,2.424 -0.387,2.512L-0.188,2.734C-0.133,2.794 -0.116,2.822 -0.122,2.817L-0.105,2.817L-0.105,0.044C-0.105,0.016 -0.089,0 -0.061,0L0.16,0C0.188,0 0.205,0.016 0.205,0.044L0.205,3.276C0.205,3.303 0.188,3.32 0.16,3.32L0,3.32Z" style="fill-rule:nonzero;"/>
        </g>
        <g id="e" transform="matrix(8.33333,0,0,8.33333,212.722,208.195)">
            <path d="M0,-4.51C0.044,-4.51 0.1,-4.477 0.172,-4.405L0.863,-3.718C0.885,-3.697 0.897,-3.68 0.897,-3.663C0.897,-3.647 0.885,-3.63 0.863,-3.614L0.814,-3.58C0.791,-3.564 0.775,-3.558 0.758,-3.558C0.736,-3.558 0.708,-3.575 0.675,-3.602L-0.011,-4.189L-0.697,-3.602C-0.73,-3.575 -0.758,-3.558 -0.78,-3.558C-0.797,-3.558 -0.814,-3.564 -0.836,-3.58L-0.885,-3.614C-0.908,-3.63 -0.919,-3.647 -0.919,-3.663C-0.919,-3.68 -0.908,-3.697 -0.885,-3.718L-0.194,-4.405C-0.122,-4.477 -0.066,-4.51 -0.022,-4.51L0,-4.51ZM-0.974,-1.577L-0.974,-0.276L1.267,-0.276C1.278,-0.276 1.29,-0.271 1.301,-0.26C1.312,-0.249 1.317,-0.238 1.317,-0.226L1.317,-0.05C1.317,-0.038 1.312,-0.027 1.301,-0.016C1.29,-0.005 1.278,0 1.267,0L-1.24,0C-1.267,0 -1.284,-0.016 -1.284,-0.044L-1.284,-3.276C-1.284,-3.303 -1.267,-3.32 -1.24,-3.32L1.212,-3.32C1.223,-3.32 1.234,-3.315 1.245,-3.303C1.256,-3.292 1.262,-3.281 1.262,-3.27L1.262,-3.093C1.262,-3.082 1.256,-3.071 1.245,-3.06C1.234,-3.049 1.223,-3.044 1.212,-3.044L-0.974,-3.044L-0.974,-1.854L1.046,-1.854C1.057,-1.854 1.068,-1.848 1.079,-1.837C1.09,-1.826 1.096,-1.815 1.096,-1.804L1.096,-1.627C1.096,-1.615 1.09,-1.605 1.079,-1.593C1.068,-1.582 1.057,-1.577 1.046,-1.577L-0.974,-1.577Z" style="fill-rule:nonzero;"/>
        </g>
        <g id="g" transform="matrix(8.33333,0,0,8.33333,195.11,192.514)">
            <path d="M0,0.46C0.017,0.886 -0.144,1.24 -0.437,1.522C-0.73,1.805 -1.14,1.943 -1.666,1.943C-2.169,1.943 -2.584,1.793 -2.911,1.483C-3.238,1.174 -3.398,0.758 -3.398,0.238C-3.398,-0.276 -3.232,-0.691 -2.906,-1.007C-2.579,-1.322 -2.164,-1.483 -1.666,-1.483C-1.168,-1.483 -0.78,-1.355 -0.509,-1.095C-0.238,-0.835 -0.1,-0.553 -0.1,-0.248C-0.1,-0.227 -0.116,-0.215 -0.149,-0.215L-0.371,-0.215C-0.398,-0.215 -0.41,-0.227 -0.41,-0.248C-0.437,-0.514 -0.553,-0.741 -0.764,-0.929C-0.974,-1.118 -1.273,-1.212 -1.66,-1.212C-2.075,-1.212 -2.413,-1.084 -2.679,-0.824C-2.944,-0.564 -3.077,-0.215 -3.077,0.222C-3.077,0.659 -2.944,1.008 -2.679,1.268C-2.413,1.528 -2.075,1.661 -1.66,1.661C-1.234,1.661 -0.902,1.556 -0.67,1.345C-0.437,1.135 -0.321,0.88 -0.321,0.587L-1.926,0.587C-1.937,0.587 -1.948,0.582 -1.959,0.57C-1.97,0.559 -1.976,0.548 -1.976,0.537L-1.976,0.36C-1.976,0.349 -1.97,0.338 -1.959,0.327C-1.948,0.316 -1.937,0.31 -1.926,0.31L-0.006,0.31L0,0.46Z" style="fill-rule:nonzero;"/>
        </g>
        <g id="a3" serif:id="a" transform="matrix(8.33333,0,0,8.33333,141.479,189.093)">
            <path d="M0,1.269L1.777,1.269L1.123,-0.032L0.902,-0.563L0.88,-0.563C0.808,-0.358 0.742,-0.181 0.664,-0.032L0,1.269ZM1.92,1.545L-0.133,1.545L-0.487,2.243C-0.504,2.276 -0.531,2.292 -0.57,2.292L-0.78,2.292C-0.819,2.292 -0.836,2.282 -0.836,2.265C-0.836,2.259 -0.83,2.243 -0.814,2.215L0.825,-1.023L0.957,-1.023L2.596,2.215C2.612,2.243 2.618,2.259 2.618,2.265C2.618,2.282 2.601,2.292 2.562,2.292L2.347,2.292C2.313,2.292 2.286,2.276 2.269,2.243L1.92,1.545Z" style="fill-rule:nonzero;"/>
        </g>
    </g>
    <g id="taura">
        <g id="a4" serif:id="a" transform="matrix(8.33333,0,0,8.33333,619.016,58.6925)">
            <path d="M0,5.273L-1.476,3.194L-2.951,5.273L0,5.273ZM3.296,12.104L2.392,10.622L-5.368,10.622L-6.222,12.104L-12.4,12.104L-1.476,-6.831L9.448,12.104L3.296,12.104Z" style="fill-rule:nonzero;"/>
        </g>
        <g id="r1" serif:id="r" transform="matrix(8.33333,0,0,8.33333,452.748,75.3083)">
            <path d="M0,1.387C-1.224,1.387 -2.216,0.395 -2.216,-0.829C-2.216,-2.053 -1.224,-3.045 0,-3.045C1.224,-3.045 2.216,-2.053 2.216,-0.829C2.216,0.395 1.224,1.387 0,1.387M10.435,4.09C9.766,4.396 7.983,4.926 6.701,4.926C7.425,4.173 8.011,3.337 8.429,2.362C8.847,1.359 9.07,0.327 9.07,-0.788C9.07,-3.073 8.261,-4.996 6.673,-6.585C5.056,-8.173 3.133,-8.981 0.876,-8.981L-8.517,-9.037L-8.517,10.11L-2.608,10.11L-2.608,7.378L-2.552,7.378C-2.476,7.449 -2.399,7.518 -2.322,7.587C-1.33,8.276 2.17,10.424 6.818,10.11L10.435,4.09Z" style="fill-rule:nonzero;"/>
        </g>
        <g id="u" transform="matrix(8.33333,0,0,8.33333,376.37,65.0358)">
            <path d="M0,3.901C0,6.047 -0.752,7.859 -2.285,9.392C-3.818,10.897 -5.658,11.649 -7.804,11.649C-9.922,11.649 -11.901,10.813 -13.322,9.392C-14.743,7.97 -15.635,6.047 -15.635,3.901L-15.635,-7.748L-9.727,-7.748L-9.727,3.901C-9.727,4.375 -9.504,4.877 -9.169,5.211C-8.807,5.546 -8.333,5.769 -7.804,5.769C-6.772,5.769 -5.936,4.932 -5.936,3.901L-5.936,-7.748L0,-7.748L0,3.901Z" style="fill-rule:nonzero;"/>
        </g>
        <g id="a5" serif:id="a" transform="matrix(8.33333,0,0,8.33333,187.347,58.6925)">
            <path d="M0,5.273L-1.476,3.194L-2.951,5.273L0,5.273ZM3.296,12.104L2.392,10.622L-5.368,10.622L-6.222,12.104L-12.4,12.104L-1.476,-6.831L9.448,12.104L3.296,12.104Z" style="fill-rule:nonzero;"/>
        </g>
        <g id="t1" serif:id="t" transform="matrix(8.33333,0,0,8.33333,118.45,110.326)">
            <path d="M0,-7.275L-4.153,-7.275L-4.153,5.908L-10.061,5.908L-10.061,-7.275L-14.214,-7.275L-14.214,-13.183L0,-13.183L0,-7.275Z" style="fill-rule:nonzero;"/>
        </g>
    </g>
</svg>
